<?xml version="1.0" encoding="UTF-8" standalone="no"?>
<svg
   width="376.11975"
   height="1219.7762"
   viewBox="0 0 376.11975 1219.7763"
   version="1.1"
   id="svg1"
   xmlns="http://www.w3.org/2000/svg"
   xmlns:svg="http://www.w3.org/2000/svg">
  <defs
     id="defs1" />
  <g
     id="layer1"
     transform="translate(-2033.4075,58.897667)">
    <path
       style="fill:#2b0000;stroke:#000000;stroke-width:10"
       id="path2"
       d="m 2066.4057,1120.9022 c -0.04,-3.6728 -0.2832,-7.3489 -0.1213,-11.0183 1.89,-42.8492 9.4144,-84.9125 17.1859,-127.02926 7.2542,-39.31351 19.726,-100.19549 27.6383,-139.36113 15.3281,-74.31915 28.6566,-149.09995 38.9325,-224.29459 4.016,-29.38737 4.7923,-38.32728 7.8005,-66.37418 2.3071,-26.04486 3.6117,-52.19138 3.4958,-78.34172 -0.041,-9.14441 -0.3541,-20.83098 -0.5691,-30.03906 -0.6262,-19.59612 -0.7807,-39.20815 -2.0407,-58.77951 -0.7753,-12.04303 -1.3791,-17.58324 -2.4949,-29.50109 -2.3153,-23.14597 -6.3869,-46.03543 -10.8283,-68.84887 -4.0627,-19.02378 -7.3928,-38.18543 -11.9492,-57.10088 -3.611,-13.67907 -6.7426,-27.47772 -10.0209,-41.23916 -3.0197,-11.51203 -5.6277,-23.0765 -7.1419,-34.88425 -1.4586,-10.76555 -2.1537,-21.60586 -2.5298,-32.45622 -0.2291,-8.83982 -0.2324,-17.68383 -0.1989,-26.525964 0.034,-6.619765 0.034,-13.23959 0.061,-19.859363 -0.016,-6.892312 -0.022,-13.784635 -0.015,-20.676999 -0.083,-6.548584 0.5959,-13.074075 1.3255,-19.572308 0.7211,-5.851874 1.0962,-11.740309 1.3118,-17.63043 -0.018,-3.651578 0.6756,-7.247698 1.0941,-10.8625554 0.2079,-1.8566844 0.2868,-3.7232639 0.3503,-5.58921782 0,0 -13.3403,-6.84761258 -13.3403,-6.84761258 v 0 c -0.047,1.8319964 -0.1049,3.6648935 -0.2833,5.48988595 -0.3801,3.66589755 -1.0989,7.30884445 -1.0693,11.00481685 -0.1659,5.867154 -0.4619,11.733797 -1.1795,17.563141 -0.7601,6.547024 -1.4966,13.12324 -1.3959,19.725322 0.01,6.884961 6e-4,13.76987 -0.026,20.65476 0.015,6.632409 -0.01,13.264833 0.011,19.897259 0.03,8.872957 0.022,17.747315 0.2691,26.617745 0.3593,10.9042 1.1117,21.78939 2.5356,32.61168 0.5487,4.3052 0.9163,7.62381 1.692,11.9125 1.4096,7.79285 3.6316,15.41982 5.4143,23.12892 3.3171,13.80668 6.5226,27.64495 10.2487,41.34856 4.4998,18.93717 8.1905,38.03693 12.0901,57.10449 4.529,22.82712 8.6921,45.73627 11.2181,68.88685 1.0762,10.97777 1.8993,18.4214 2.5983,29.4836 1.2353,19.54757 1.3138,39.14191 1.9768,58.71077 1.1018,36.29422 1.1821,72.64699 -1.6031,108.87944 -2.4898,28.86937 -2.9495,36.61793 -6.5542,66.97513 -8.9779,75.60772 -21.6437,150.74663 -36.8131,225.34899 -17.4142,86.04687 -10.6802,53.21 -28.3892,138.97234 -11.4242,55.32547 -11.6964,51.00697 -18.2315,98.47687 -3.3317,24.2014 -2.8852,20.0631 -3.5983,37.3426 z" />
    <path
       style="fill:#2b0000;stroke:#000000;stroke-width:10"
       id="path3"
       d="m 2057.0888,-8.2521353 c -1.6034,18.7379093 -3.3397,37.4838843 -3.684,56.3006693 -0.1642,8.973213 -0.013,17.949426 -0.02,26.924139 0.4694,62.009827 5.2289,123.880087 11.8806,185.501667 3.5854,30.6454 8.8235,61.05733 13.1296,91.60194 2.9071,21.72397 4.8743,43.56988 6.8092,65.39901 3.5424,36.32764 8.2886,72.53149 14.1836,108.54915 5.6182,34.50791 12.3388,68.82139 18.0997,103.30406 4.1779,26.94029 7.0001,54.06486 9.2893,81.22317 1.7781,22.15307 2.0779,44.38361 2.2894,66.59519 0.4823,21.95051 -1.0958,43.83444 -3.3339,65.64822 -2.0463,17.6247 -4.0937,35.24768 -5.938,52.89476 -1.6417,12.77517 -2.3741,25.62744 -2.782,38.49241 -0.4176,15.07188 -1.3422,30.11573 -2.7012,45.13001 -1.1886,12.73296 -2.5053,25.45204 -4.3106,38.11354 -1.5423,8.0985 -2.5051,16.3105 -4.2415,24.3702 -1.3866,5.8602 -3.4405,11.502 -5.7571,17.0485 -3.0664,7.8946 -7.7794,14.9178 -12.554,21.8535 -5.7009,7.4968 -10.956,15.3259 -16.6345,22.8366 -2.6363,3.0599 -4.1682,6.806 -6.311,10.181 -1.4654,2.4729 -2.6751,5.0777 -4.0683,7.5909 -1.2491,2.3079 -1.5943,4.881 -1.7963,7.4556 -0.3974,3.0176 -0.8251,6.0281 -1.5153,8.9934 -0.7835,2.6006 -1.6581,5.1507 -2.9021,7.5683 -0.1901,0.3888 -0.3802,0.7775 -0.5702,1.1663 0,0 13.0435,7.4103 13.0435,7.4103 v 0 c 0.1844,-0.3783 0.3687,-0.7566 0.5531,-1.1349 1.3155,-2.5241 2.2022,-5.1958 3.0632,-7.9037 0.7171,-3.0395 1.1525,-6.1131 1.6462,-9.1966 0.1429,-2.365 0.3579,-4.7497 1.4863,-6.8835 1.3642,-2.4948 2.5617,-5.0717 3.9945,-7.5281 2.1141,-3.3511 3.5854,-7.0755 6.1188,-10.1662 5.545,-7.6188 10.7491,-15.486 16.4662,-22.9824 4.9509,-6.9484 9.7758,-14.0175 12.8952,-22.0173 2.388,-5.6195 4.5378,-11.3151 5.907,-17.282 1.7444,-8.1184 2.5343,-16.412 4.0984,-24.5676 1.7499,-12.7141 3.0847,-25.4758 4.1708,-38.26334 1.4267,-15.02004 2.2534,-30.08169 2.8411,-45.15709 0.4003,-12.8383 1.1221,-25.66343 2.7106,-38.41746 1.6992,-17.6968 3.4351,-35.39073 5.6779,-53.02903 0.4091,-4.09797 1.6636,-16.40924 1.9591,-20.41124 1.1159,-15.11446 1.3888,-30.31249 1.2763,-45.46013 -0.1312,-22.23826 -0.2634,-44.50135 -2.1985,-66.67363 -2.4401,-27.2329 -5.4292,-54.42196 -9.5137,-81.46206 -6.0386,-34.51948 -12.7432,-68.91845 -18.5022,-103.48743 -5.7454,-35.89948 -10.7117,-71.94265 -13.6842,-108.18979 -1.8418,-21.82091 -3.439,-43.69286 -6.5755,-65.37511 -4.6391,-30.73467 -10.2181,-61.32507 -14.318,-92.14265 -2.7241,-22.24936 -4.0261,-31.57067 -6.1195,-54.63038 -3.9473,-43.48302 -5.8783,-87.1353 -5.9665,-130.795656 0.1818,-8.865291 0.2153,-17.734862 0.5454,-26.595873 0.6923,-18.5895 2.6706,-37.077604 5.1191,-55.5056586 z" />
    <path
       style="fill:#2b0000;stroke:#000000;stroke-width:10"
       id="path4"
       d="m 2039.5568,1117.0368 c -0.451,5.7106 -0.7788,11.4291 -1.0194,17.1522 0,0 13.239,6.8063 13.239,6.8063 v 0 c 0.1743,-5.685 0.4282,-11.3733 1.0509,-17.0294 z" />
    <path
       style="fill:#2b0000;stroke:#000000;stroke-width:10"
       id="path5"
       d="m 2084.8253,1071.2117 c 3.2867,-10.6238 7.3495,-20.9931 10.7242,-31.5871 2.9333,-9.2081 4.4415,-15.1823 7.0132,-24.6371 4.6602,-18.2347 8.9652,-36.58031 11.999,-55.1644 1.9842,-12.15421 2.2606,-15.66213 3.6851,-27.79077 1.5786,-14.16287 2.3129,-28.41567 4.1521,-42.55108 0.815,-6.26298 1.3998,-9.19369 2.483,-15.34354 2.4116,-12.8451 5.0736,-25.64891 7.8475,-38.42118 1.6112,-6.82694 2.8959,-13.73193 3.6146,-20.71094 0.05,-0.64579 0.099,-1.29157 0.1483,-1.93736 0,0 -13.2689,-6.87102 -13.2689,-6.87102 v 0 c -0.035,0.63872 -0.07,1.27744 -0.1052,1.91616 -0.5622,6.9722 -1.726,13.87428 -3.2651,20.69688 -2.7006,12.82445 -5.2897,25.67642 -7.7145,38.55539 -1.0163,5.9109 -1.701,9.46965 -2.4287,15.47847 -1.7202,14.20349 -2.2491,28.52647 -3.7444,42.75172 -1.3669,12.0524 -1.631,15.66874 -3.5986,27.73789 -3.0219,18.53647 -7.3142,36.84043 -12.0041,55.01648 -2.7421,9.7277 -4.1037,14.9947 -7.2135,24.4258 -3.4692,10.5212 -7.5223,20.8444 -11.3223,31.2472 z" />
    <path
       style="fill:#2b0000;stroke:#000000;stroke-width:10"
       id="path6"
       d="m 2145.0737,645.63809 c 4.1386,-16.5038 6.5477,-33.29176 8.3381,-50.19077 2.3327,-26.92134 2.6819,-53.95548 2.5446,-80.96004 -0.4059,-19.69786 -1.1699,-39.4092 -2.8317,-59.04402 -1.6916,-17.95538 -6.4363,-35.4576 -11.16,-52.80916 -5.614,-18.93176 -11.8631,-37.67242 -17.952,-56.45667 -6.3793,-20.34353 -13.9212,-40.28568 -21.2038,-60.31433 -8.8198,-23.91859 -15.6695,-48.47751 -21.9294,-73.1682 -5.885,-22.61825 -9.068,-45.75268 -11.3308,-68.97195 -1.4697,-17.79129 -2.0529,-35.65461 -1.8161,-53.502824 0.3372,-16.550385 3.6808,-32.784148 6.9845,-48.938382 2.8657,-13.596959 6.8523,-26.91956 9.8433,-40.4849507 1.2859,-5.8176187 2.7108,-11.5962023 4.184,-17.3675453 1.1975,-5.809781 2.48,-11.597737 3.7592,-17.390461 0.7443,-2.718218 1.4463,-5.446807 2.1187,-8.183518 0,0 -13.099,-7.066517 -13.099,-7.066517 v 0 c -0.6419,2.757957 -1.3229,5.505358 -2.0716,8.236678 -1.2865,5.7699 -2.6287,11.522144 -3.795,17.318773 -1.4773,5.8125 -2.8853,11.628588 -4.0244,17.5217421 -2.7743,13.6514683 -6.6619,27.0414939 -9.498,40.6819009 -3.3069,16.216162 -6.9749,32.481542 -7.2493,49.106644 -0.1933,17.93443 0.5355,35.88325 1.9765,53.7597 2.3067,23.31642 5.5766,46.5434 11.4517,69.26433 6.2019,24.69209 13.0963,49.21469 21.668,73.20321 7.2957,20.00224 14.8318,39.92179 21.1934,60.25049 6.0124,18.79031 12.3046,37.49485 17.9714,56.39245 4.6652,17.26845 9.3184,34.66716 11.1275,52.5114 1.781,19.66023 2.6753,39.39953 3.2517,59.12891 0.2657,26.94477 -0.039,53.92437 -2.5484,80.77556 -1.8737,16.75277 -4.2962,33.43106 -9.0404,49.65057 z" />
    <path
       style="fill:#2b0000;stroke:#000000;stroke-width:10"
       id="path7"
       d="m 2089.9799,-49.821626 c 4.6381,18.920441 6.3986,38.455655 8.1784,57.8164574 1.8553,22.8426956 2.5097,45.7714516 2.3468,68.6836676 0.069,18.340251 -2.559,36.525901 -4.8681,54.676401 -2.3057,17.08498 -5.2354,34.07625 -7.4103,51.17883 -2.2288,16.37821 -3.3185,32.88015 -4.3887,49.36554 -1.4893,21.68688 -2.373,43.40658 -3.1769,65.12728 -0.7709,21.03006 -1.2712,42.05973 -1.0709,63.10307 -0.093,19.50628 4.0061,38.62743 8.1582,57.58176 6.7925,26.30412 13.1461,52.71643 19.8356,79.04661 5.0391,19.60881 9.8668,39.27841 15.4885,58.73094 2.1251,7.24391 1.1339,3.82228 2.9811,10.26273 0,0 13.2719,6.28799 13.2719,6.28799 v 0 c -1.9883,-6.51389 -0.9236,-3.05706 -3.2012,-10.36834 -5.9379,-19.47519 -10.785,-39.25226 -16.0208,-58.92314 -6.7181,-26.25501 -13.0804,-52.59986 -19.6341,-78.89518 -4.0878,-18.86497 -8.1077,-37.86244 -8.1567,-57.26252 -0.367,-21.03095 0.051,-42.05877 0.9659,-63.07339 0.8766,-21.70292 1.3394,-43.43088 3.1674,-65.085 1.1778,-16.42485 2.475,-32.8569 4.5334,-49.19782 2.1382,-17.12485 4.9355,-34.15397 7.2574,-51.25392 2.3939,-18.19926 5.1071,-36.44457 4.9139,-54.850685 0.065,-22.979527 -0.6603,-45.978855 -2.4539,-68.891083 -1.7909,-19.2565637 -3.534,-38.613621 -7.2462,-57.607156 z" />
    <path
       style="fill:#2b0000;stroke:#000000;stroke-width:10"
       id="path8"
       d="m 2140.5816,591.93794 c -0.3858,-24.23498 -0.5123,-48.47362 -0.5695,-72.71157 -0.095,-29.11804 0.01,-58.23168 0.6068,-87.34331 0.8065,-19.23934 1.5738,-38.47925 2.1257,-57.72785 0.3027,-15.77744 0.4522,-31.55973 0.022,-47.33543 0.038,-11.83015 -1.7059,-23.51971 -3.7433,-35.13765 -1.614,-11.89611 -5.3673,-23.31157 -8.5348,-34.84276 -4.1239,-14.96637 -8.4803,-29.86656 -12.7607,-44.78841 -4.9299,-17.86876 -8.826,-35.9962 -12.9315,-54.06551 -3.3852,-14.88255 -6.6691,-29.76944 -8.9727,-44.86194 -2.0844,-12.76877 -3.0913,-25.65992 -3.5911,-38.576217 -0.3117,-9.634701 -0.256,-19.275101 -0.2853,-28.913222 7e-4,-11.553891 0.042,-23.097522 -0.3739,-34.64476 -0.3621,-8.4248158 -0.6401,-16.8522866 -0.7791,-25.28372 0.024,-5.544898 -0.2907,-11.104174 0.075,-16.641293 0.3034,-3.781791 2.1527,-6.654121 4.8446,-9.170847 0.3715,-0.375239 0.743,-0.750478 1.1145,-1.125718 0,0 -12.7726,-7.818845 -12.7726,-7.818845 v 0 c -0.3621,0.36523 -0.7241,0.730459 -1.0861,1.095688 -2.8821,2.814488 -4.9052,6.056004 -5.3371,10.157877 -0.4146,5.584934 -0.027,11.206711 -0.053,16.802123 0.1887,8.473512 0.5392,16.941635 0.9603,25.4066852 0.4695,11.5146178 0.4615,23.0316168 0.3213,34.5543808 -0.038,9.672521 0.01,19.347401 0.3546,29.014865 0.5399,12.982568 1.4863,25.944049 3.6356,38.775023 2.2412,15.16961 5.5627,30.1198 9.0828,45.0395 4.2291,18.05474 7.8885,36.25046 12.8778,54.11964 4.1984,14.88454 8.4816,29.74467 12.5469,44.66654 3.0757,11.51346 6.9432,22.85722 8.5668,34.71326 2.059,11.56497 3.7906,23.21707 3.9178,34.99027 0.5343,15.76753 0.4698,31.53436 0.096,47.30697 -0.3696,19.30306 -1.129,38.59103 -1.8358,57.88399 -0.5166,29.19849 -0.051,58.39904 -0.1609,87.60067 -0.057,24.04453 -0.1813,48.08981 -0.5694,72.13129 z" />
    <path
       style="fill:#2b0000;stroke:#000000;stroke-width:10"
       id="path9"
       d="m 2129.8559,474.78998 c -0.011,-15.49314 -1.9936,-30.84746 -3.8692,-46.19359 -2.7051,-20.7239 -4.7662,-41.51933 -6.0879,-62.37578 -1.0018,-15.3191 -1.936,-30.64298 -3.5135,-45.91549 -1.3314,-12.96538 -2.889,-25.90622 -4.3723,-38.85488 -1.413,-11.24683 -2.0041,-22.56933 -2.3324,-33.89239 -0.012,-4.26615 -0.2268,-8.53675 -0.1489,-12.80347 0.04,-2.18392 -0.1717,-4.68398 1.3928,-6.38361 3.277,4.95128 -0.6071,-1.29497 -10.8694,-4.93207 -0.868,-0.30761 0.9852,1.56088 1.3834,2.39116 1.6835,3.50971 2.8025,7.34863 4.0542,11.02293 2.5088,6.73776 4.442,13.68324 5.766,20.7473 1.2693,7.88116 1.937,15.81588 2.3254,23.78304 0.5221,14.00964 0.4514,28.03218 0.5238,42.04898 0.1411,20.46393 0.1398,40.92772 0.044,61.39181 -0.064,14.23811 -0.07,28.47648 -0.1772,42.71436 -0.039,7.64819 -0.062,15.29641 -0.09,22.94464 -0.1488,2.50102 0.2219,5.05185 -0.1718,7.54207 -0.055,0.34977 -0.6467,0.83739 -0.3363,1.00774 14.4916,7.95183 14.3725,9.99102 11.8183,2.77934 -3.6436,-17.23256 -5.0455,-34.8022 -6.5086,-52.31975 -1.0605,-16.10483 -2.1405,-32.21007 -3.1204,-48.32056 -0.076,-1.57519 -0.1588,-3.15003 -0.2268,-4.72556 -0.7549,-17.499 0.3608,7.78899 -0.275,-8.54671 -0.036,-0.93697 0.6803,-2.39801 -0.1628,-2.80832 -15.6765,-7.62898 -13.5486,-7.67206 -14.9493,2.19383 -1.8894,17.34583 -3.0394,34.77666 -2.2557,52.21692 0.1616,2.15411 0.277,4.31218 0.4848,6.46232 0.2568,2.65644 0.7627,6.36972 1.287,9.09261 0.1443,0.74916 -0.1658,1.91199 0.5292,2.22677 15.1827,6.8768 13.5443,8.55415 14.4244,-0.10591 0.078,-2.08209 0.2076,-4.16289 0.2328,-6.24628 0.199,-16.39906 -0.3394,-6.55408 0.1253,-24.66184 0.3546,-13.82009 1.417,-27.57243 2.56,-41.34381 2.0783,-19.7972 4.5199,-39.55803 7.1238,-59.29272 1.2393,-9.04186 2.3809,-18.13088 2.3362,-27.26866 -0.1311,-9.11114 -0.8307,-18.16888 -2.057,-27.19382 -1.3984,-10.38295 -3.2865,-20.69415 -5.1198,-31.00756 -1.7227,-9.27085 -4.0367,-18.42291 -6.4658,-27.53064 -2.4867,-7.89757 -5.0029,-15.78362 -7.6893,-23.61546 -3.5813,-10.26576 -7.5904,-20.37752 -11.3705,-30.57502 -3.4995,-8.68928 -5.9824,-17.73467 -9.1189,-26.54856 -2.5329,-5.974493 -1.3738,-4.291815 -14.6782,-7.662244 -1.0731,-0.27185 -0.9849,13.723066 -0.986,14.201148 -0.022,13.715696 1.5134,27.377086 2.704,41.026096 0.9514,9.77119 2.4176,19.48311 4.2096,29.13295 2.9758,17.4665 5.2172,35.0486 7.5178,52.61371 4.2383,28.95769 8.9446,57.85043 13.7028,86.72759 2.1723,14.5207 5.6602,28.79312 8.256,43.2335 1.4642,7.79456 2.7205,15.62294 3.8093,23.47819 1.2457,9.6216 2.4246,19.24768 3.2738,28.91316 0.246,9.13899 1.7201,18.42166 0.7721,27.55546 -1.678,5.64548 -1.4105,3.10202 12.3854,7.12423 0.8321,0.2426 -0.8497,-1.52655 -1.0983,-2.35688 -0.4774,-1.59461 -0.7727,-3.23994 -1.0677,-4.87814 -0.8361,-4.64405 -1.3997,-10.06596 -1.9516,-14.68141 -1.8258,-20.3964 -3.3232,-40.82009 -4.9952,-61.22942 -1.1689,-8.46855 -1.1216,-17.23327 -3.5102,-25.49828 -3.0212,-5.74386 -10.0017,-7.78736 -15.9793,-9.96597 -1.462,-0.53285 -4.248,6.62713 -4.5478,7.39672 -2.3825,7.73389 -2.7842,15.83153 -2.3301,23.85716 1.5621,12.35031 5.8501,11.44931 18.1257,18.5232 2.5961,0.52017 5.7838,1.12824 7.7813,-1.14198 0.5345,-0.6075 0.8571,-1.37275 1.2857,-2.05912 1.9316,-5.12329 2.2718,-10.64125 2.4719,-16.05764 -4.5672,-1.69613 -8.846,-4.69018 -13.7017,-5.08838 -1.3127,-0.10766 -0.2568,2.62219 -0.3477,3.93624 -0.7043,10.17664 -0.8292,20.37719 -0.8504,30.57337 0.3383,19.24956 2.0987,38.43423 3.3221,57.639 0.9092,16.02189 1.6452,32.05259 2.7321,48.06353 0.5327,12.95376 1.5011,25.85446 3.2436,38.70237 1.7143,8.83157 2.911,17.76366 4.7167,26.57608 1.8908,6.81704 2.9027,13.8092 4.1548,20.7571 0.9609,6.4152 2.5601,12.70331 3.9176,19.03838 1.381,5.80995 2.9622,11.56388 4.3528,17.37246 1.1146,4.31562 1.8794,8.69523 2.224,13.13635 0.053,3.47992 0.2349,6.91792 0.7383,10.36161 0.9915,7.22824 -0.4572,6.53476 13.9443,8.18312 0.9632,0.11024 0.044,-1.93852 0.057,-2.90793 0.015,-1.11101 0.018,-2.22215 0.028,-3.33322 0.1127,-7.18066 -0.1863,-14.37304 0.1754,-21.54718 0.074,-0.88845 0.1488,-1.77689 0.2232,-2.66534 0,0 -13.1962,-6.85886 -13.1962,-6.85886 v 0 c -0.071,0.90686 -0.1423,1.81373 -0.2135,2.72059 -0.3703,7.19461 0.018,14.40682 -0.1821,21.60794 -0.018,1.0995 -0.029,2.19914 -0.055,3.2985 -0.022,0.94981 -0.7926,2.21264 -0.087,2.84885 15.8072,14.25312 13.6493,12.92223 12.7533,5.25531 -0.5239,-3.41734 -0.886,-6.80646 -0.8318,-10.2744 -0.273,-4.53802 -1.0259,-9.00512 -2.1972,-13.40256 -1.4108,-5.7853 -2.8916,-11.54569 -4.3415,-17.32096 -1.3349,-6.34848 -3.1013,-12.61052 -4.0334,-19.04179 -1.2373,-6.9586 -2.1507,-13.9773 -4.1086,-20.78822 -1.9457,-8.80721 -3.1127,-17.77456 -4.9987,-26.59762 -1.8375,-12.81058 -2.7414,-25.69423 -3.3035,-38.62015 -1.1472,-16.04432 -2.1488,-32.09721 -2.9459,-48.16367 -1.284,-19.17111 -3.0343,-38.32884 -3.3645,-57.54883 0.07,-10.08151 0.2424,-20.17871 1.2133,-30.22253 0.1206,-1.24806 1.3535,-2.85787 0.4563,-3.73383 -3.7173,-3.62947 -8.6892,-5.69765 -13.0338,-8.54647 1.3387,2.82048 -0.8287,12.02171 -1.824,15.1275 -0.3315,0.50224 -0.5643,1.08592 -0.9945,1.5067 -1.7396,1.70152 -4.9928,0.55443 -6.8882,-0.14704 28.3218,16.79706 11.2436,7.79034 9.1542,4.808 -1.5118,-2.158 -1.9617,-4.80357 -2.349,-7.34385 -0.6249,-7.81705 -0.2714,-15.72039 2.0477,-23.26608 0.6419,-1.62073 1.2302,-3.64947 2.4706,-4.99763 0.2925,-0.31789 1.4914,-0.35893 1.1419,-0.6128 -3.7,-2.68758 -7.8465,-4.69973 -11.7456,-7.08941 -0.3815,-0.2338 0.8366,0.34628 1.1904,0.62025 0.3893,0.30157 0.6711,0.72095 1.0066,1.08142 3.0591,8.06783 2.7246,17.0628 4.2078,25.4572 1.9334,20.39107 3.4696,40.81475 4.955,61.24285 0.6522,6.57081 1.3079,13.08798 2.4491,19.5933 0.1817,1.03548 -0.282,2.50888 0.5884,3.0985 4.3962,2.9781 9.3209,5.18224 14.3117,6.99529 0.5313,0.19301 0.2839,-1.0943 0.4259,-1.64145 0.8228,-9.26924 -0.6354,-18.64448 -0.8961,-27.9138 -0.7555,-9.67051 -1.8517,-19.30809 -3.1232,-28.92415 -1.0512,-7.88197 -2.2009,-15.75075 -3.79,-23.54541 -2.7373,-14.54954 -6.6128,-28.87301 -8.8856,-43.51728 -4.9945,-28.84743 -9.9558,-57.71439 -13.8529,-86.73392 -2.0651,-17.45592 -4.0813,-34.92957 -6.7036,-52.31128 -1.8129,-9.64897 -3.4551,-19.32771 -4.4565,-29.10093 -1.281,-13.57572 -2.8785,-27.17837 -2.6544,-40.83555 0.073,-3.80868 0.014,-7.681185 0.4899,-11.471247 0.072,-0.574271 0.7782,-1.348702 0.3229,-1.706038 -3.877,-3.042832 -8.1803,-5.528749 -12.5192,-7.866216 -0.5209,-0.280599 0.5533,1.045942 0.8299,1.568913 3.5257,8.741093 5.7766,17.966048 9.4171,26.673908 3.7504,10.14755 7.6385,20.24594 11.196,30.45914 2.7224,7.7965 5.1653,15.67839 7.7368,23.52591 2.4978,9.0792 4.8488,18.21655 6.625,27.46647 1.8747,10.28482 3.6606,20.59533 5.1348,30.94542 1.224,8.95151 1.8822,17.93737 2.037,26.97362 0.095,9.11127 -0.9078,18.18137 -2.0186,27.21534 -2.3505,19.86356 -4.5098,39.75212 -6.5652,59.64827 -1.179,13.57001 -1.3437,14.09283 -2.0478,27.54438 -0.6659,12.72276 -0.7798,25.45319 -1.2984,38.18013 -0.083,2.03133 -0.2277,4.05965 -0.3415,6.08948 -1.0093,8.82244 -1.7981,5.09199 12.0914,13.32907 0.6543,0.38799 -0.5375,-1.42665 -0.7228,-2.16437 -1.2752,-5.07806 -1.7163,-10.34005 -2.1665,-15.53644 -1.0242,-17.32454 0.016,-34.67858 2.2374,-51.88527 1.7707,-10.05245 3.1062,-7.39066 -11.2107,-15.64064 -0.8103,-0.46689 0.2471,1.85539 0.3055,2.78869 0.2786,4.45093 0.1493,8.92965 0.5895,13.37376 1.0645,16.19095 2.7049,32.34303 3.519,48.55295 1.4705,17.46107 2.7672,34.95754 5.846,52.23053 1.1693,8.61627 -0.396,4.99827 14.6632,10.85984 0.4436,0.17267 0.3524,-0.89196 0.4314,-1.3614 0.4264,-2.53481 0.01,-5.13143 0.1506,-7.67834 -0.028,-7.67855 -0.051,-15.35707 -0.089,-23.03558 -0.1057,-14.29571 -0.1087,-28.5919 -0.1641,-42.88786 -0.084,-20.44637 -0.065,-40.89225 0.066,-61.3384 0.042,-13.9895 0.027,-27.98151 -0.2297,-41.96894 -0.306,-8.00636 -0.8853,-15.97898 -2.1226,-23.90103 -1.209,-7.15384 -3.1965,-14.17888 -5.7329,-20.97506 -3.0038,-9.01214 -6.7289,-25.44642 -20.7952,-22.4109 -0.3172,0.46312 -0.7485,0.86611 -0.9518,1.38937 -0.7067,1.81869 -0.6796,4.10538 -0.7046,5.97536 -0.057,4.29044 0.1514,8.58539 0.2153,12.87422 0.351,11.37709 0.9772,22.75802 2.3855,34.05903 1.5276,12.95206 3.0021,25.9116 4.4489,38.87267 1.5899,15.28728 2.604,30.61853 3.6977,45.94758 1.4379,20.89045 3.5314,41.72529 6.1656,62.49957 1.791,15.15779 3.7825,30.37804 3.2327,45.67924 z" />
    <path
       style="fill:#2b0000;stroke:#000000;stroke-width:10"
       id="path10"
       d="m 2093.6712,932.71659 c 0.1312,17.04196 0.7485,34.07368 1.1072,51.11142 0.1634,16.62929 0.7288,33.27069 -0.1572,49.88629 -0.8684,12.7445 -4.6157,25.02 -9.0227,36.931 -2.5982,7.3492 -5.7135,14.5135 -8.229,21.8901 -1.1957,3.9466 -2.9467,7.5336 -5.2755,10.9094 -2.427,3.0099 -2.7689,3.7386 -6.6027,4.8048 -1.012,0.1976 -2.2423,0.6332 -3.2867,0.1421 -0.4592,-0.216 -1.5757,-1.2492 -1.115,-1.0364 4.1257,1.9065 7.8377,4.7755 12.1712,6.1454 0.716,0.2263 0.034,-1.507 0.1612,-2.247 0.1588,-0.9209 0.4631,-1.8107 0.6947,-2.716 2.6491,-6.5547 7.1291,-12.1245 11.2882,-17.7662 2.5681,-3.8884 5.7692,-7.2647 8.0721,-11.3248 2.1659,-3.2385 3.1237,-6.8654 3.631,-10.6742 0.3683,-8.5157 0.3231,-17.049 0.3171,-25.5721 0.2046,-13.0931 0.8858,-26.1723 1.5704,-39.2471 0.5416,-10.0392 0.8993,-20.08648 1.0762,-30.13838 -0.022,-7.22888 0.1244,-14.44029 0.7875,-21.64066 0.548,-6.78359 1.7792,-13.47778 2.5651,-20.23168 0.5535,-4.06436 0.429,-8.18693 1.1546,-12.2251 0.199,-1.75861 0.8215,-3.42256 1.3182,-5.11013 0,0 -13.1705,-7.18595 -13.1705,-7.18595 v 0 c -0.4972,1.74055 -1.1677,3.44494 -1.3794,5.25255 -0.7478,4.09164 -0.5934,8.252 -1.0741,12.38032 -0.7428,6.7779 -1.9459,13.49582 -2.4927,20.29747 -0.7231,7.23146 -0.9964,14.47305 -0.8595,21.74071 -0.088,10.07812 -0.3137,20.15515 -0.794,30.22297 -0.6197,13.07038 -1.4338,26.13028 -1.7968,39.21198 -0.013,8.4324 0.1091,16.8784 -0.4418,25.2974 -0.4382,3.631 -1.2806,7.0782 -3.3656,10.1558 -2.2707,4.0014 -5.368,7.392 -7.8705,11.2462 -4.2027,5.8312 -8.7851,11.5404 -11.5865,18.218 -0.022,0.076 -1.6192,5.1949 -1.2635,5.5485 3.8334,3.8111 8.5245,6.656 12.9398,9.7745 0.4398,0.3105 1.0134,0.4012 1.5487,0.4585 1.2098,0.1295 2.4138,-0.2798 3.5584,-0.5602 3.7196,-1.2914 4.8724,-2.5809 7.156,-5.6368 2.3753,-3.5168 4.1669,-7.2345 5.3574,-11.3314 2.4709,-7.3912 5.4787,-14.6002 7.9906,-21.9796 4.3669,-12.0638 8.2817,-24.4803 9.1471,-37.3572 0.8484,-16.7044 0.1159,-33.4186 -0.1033,-50.13362 -0.2837,-16.92474 -0.8857,-33.85425 -0.5168,-50.78062 z" />
    <circle
       id="path11"
       style="fill:#2b0000;stroke:#000000"
       cx="2402.2407"
       cy="651.11243"
       r="6.7865243" />
  </g>
</svg>
