<?xml version="1.0" encoding="UTF-8" standalone="no"?>
<!-- Created with Inkscape (http://www.inkscape.org/) -->

<svg
   width="101.56476mm"
   height="65.067215mm"
   viewBox="0 0 101.56476 65.067215"
   version="1.1"
   id="svg1"
   xml:space="preserve"
   inkscape:version="1.4.4 (dcaf3e7, 2026-05-05)"
   sodipodi:docname="Door.svg"
   inkscape:export-filename="Door.png"
   inkscape:export-xdpi="96"
   inkscape:export-ydpi="96"
   xmlns:inkscape="http://www.inkscape.org/namespaces/inkscape"
   xmlns:sodipodi="http://sodipodi.sourceforge.net/DTD/sodipodi-0.dtd"
   xmlns="http://www.w3.org/2000/svg"
   xmlns:svg="http://www.w3.org/2000/svg"><sodipodi:namedview
     id="namedview1"
     pagecolor="#ffffff"
     bordercolor="#000000"
     borderopacity="0.25"
     inkscape:showpageshadow="2"
     inkscape:pageopacity="0.0"
     inkscape:pagecheckerboard="0"
     inkscape:deskcolor="#d1d1d1"
     inkscape:document-units="mm"
     inkscape:zoom="0.72945683"
     inkscape:cx="-104.18711"
     inkscape:cy="106.92888"
     inkscape:window-width="2560"
     inkscape:window-height="1351"
     inkscape:window-x="-9"
     inkscape:window-y="-9"
     inkscape:window-maximized="1"
     inkscape:current-layer="layer1" /><defs
     id="defs1" /><g
     inkscape:label="Ebene 1"
     inkscape:groupmode="layer"
     id="layer1"
     transform="translate(-55.142494,-111.56736)"><path
       style="fill:#f3f3f3;fill-opacity:1;stroke-width:3.65698"
       id="path1"
       sodipodi:type="arc"
       sodipodi:cx="105.92487"
       sodipodi:cy="-175.55829"
       sodipodi:rx="50.782379"
       sodipodi:ry="63.990932"
       sodipodi:start="0.0044058157"
       sodipodi:end="3.1417217"
       sodipodi:arc-type="slice"
       d="m 156.70676,-175.27636 a 50.782379,63.990932 0 0 1 -50.89703,63.70884 50.782379,63.990932 0 0 1 -50.667235,-63.99903 l 50.782375,0.008 z"
       transform="scale(1,-1)" /><ellipse
       style="display:inline;fill:#1b1b1b;fill-opacity:1;stroke-width:1.81162"
       id="path3"
       cx="114.61725"
       cy="136.65205"
       rx="2.5922139"
       ry="2.6296675" /><ellipse
       style="display:inline;fill:#1b1b1b;fill-opacity:1;stroke-width:1.81162"
       id="path3-5"
       cx="100.81362"
       cy="155.46677"
       rx="2.5922139"
       ry="2.6296675" /><path
       style="display:inline;fill:#1b1b1b;fill-opacity:1;stroke-width:2.66499"
       d="m 106.58089,142.81816 c 0,0 -12.149219,-1.42357 -15.721334,-5.53137 -2.399749,-2.75963 -2.82291,-3.20868 -2.176277,-6.07543 0.412993,-1.83094 4.122001,-4.86488 5.440693,-1.45086 0.877391,2.27152 -1.541529,5.35002 3.98984,7.61697 5.531368,2.26696 5.276298,-3.87512 4.805948,-5.62204 -0.68662,-2.55019 -4.896626,-7.25426 -11.697489,-5.16866 -6.800866,2.0856 -6.61951,11.06274 -6.61951,11.06274 0,0 1.456351,7.73326 9.670507,10.02866 2.731965,1.36567 12.126272,1.2381 12.126272,1.2381 z"
       id="path4"
       sodipodi:nodetypes="csssssscccc" /><path
       style="display:inline;opacity:1;fill:#1b1b1b;fill-opacity:1;stroke-width:2.66499"
       d="m 107.99774,142.45545 c 0,0 30.55855,0.27204 19.1331,20.03988 -8.09126,9.09201 -18.65587,-3.71805 -14.86478,-6.59295 -10e-4,-1.52464 9.8769,-4.69157 7.42916,5.77685 3.90709,4.47546 6.70587,-1.89755 6.07544,-2.81102 0.15861,-0.55533 0.99746,-6.93689 -17.68225,-10.29198 -0.0453,-2.9017 -0.0907,-6.12078 -0.0907,-6.12078 z"
       id="path5"
       sodipodi:nodetypes="ccccccc" /><path
       style="display:inline;fill:#1b1b1b;fill-opacity:1;stroke-width:2.66499"
       d="m 105.0643,175.59429 1.64855,-0.0271 c 0,0 0.23423,-63.98062 0.15285,-63.98646 -0.5371,-0.0385 -1.21605,-0.005 -1.21605,-0.005 z"
       id="path2-1"
       sodipodi:nodetypes="ccscc" /><path
       style="display:inline;fill:#1b1b1b;fill-opacity:1;stroke-width:2.66499"
       d="m 107.21267,175.56226 1.21574,-0.011 0.55621,-63.86665 c 0,0 -0.64772,-0.12171 -1.59577,-0.0844 0.0848,11.18285 -0.17618,63.96207 -0.17618,63.96207 z"
       id="path2-1-1"
       sodipodi:nodetypes="ccccc" /></g></svg>
